<?xml version="1.0" encoding="UTF-8" standalone="no"?>
<svg
   xmlns:dc="http://purl.org/dc/elements/1.1/"
   xmlns:cc="http://creativecommons.org/ns#"
   xmlns:rdf="http://www.w3.org/1999/02/22-rdf-syntax-ns#"
   xmlns:svg="http://www.w3.org/2000/svg"
   xmlns="http://www.w3.org/2000/svg"
   xmlns:sodipodi="http://sodipodi.sourceforge.net/DTD/sodipodi-0.dtd"
   xmlns:inkscape="http://www.inkscape.org/namespaces/inkscape"
   version="1.1"
   id="svg2"
   xml:space="preserve"
   width="62.226665"
   height="116.06667"
   viewBox="0 0 62.226665 116.06667"
   sodipodi:docname="h1_mark_white.eps"><metadata
     id="metadata8"><rdf:RDF><cc:Work
         rdf:about=""><dc:format>image/svg+xml</dc:format><dc:type
           rdf:resource="http://purl.org/dc/dcmitype/StillImage" /></cc:Work></rdf:RDF></metadata><defs
     id="defs6" /><sodipodi:namedview
     pagecolor="#ffffff"
     bordercolor="#666666"
     borderopacity="1"
     objecttolerance="10"
     gridtolerance="10"
     guidetolerance="10"
     inkscape:pageopacity="0"
     inkscape:pageshadow="2"
     inkscape:window-width="640"
     inkscape:window-height="480"
     id="namedview4" /><g
     id="g10"
     inkscape:groupmode="layer"
     inkscape:label="ink_ext_XXXXXX"
     transform="matrix(1.3333333,0,0,-1.3333333,0,116.06667)"><g
       id="g12"
       transform="scale(0.1)"><path
         d="m 102.453,859.555 c -11.8046,7.218 -26.1366,10.906 -42.9374,10.906 -17.5976,0 -31.9218,-3.688 -42.8242,-10.906 C 5.5625,852.289 -0.00390625,842.859 -0.00390625,831.281 V 40.2773 c 0,-10 5.78906625,-19.082 17.27340625,-27.5976 11.3516,-8.46486 25.3321,-12.68360625 42.2461,-12.68360625 16.0157,0 30.0977,4.21874625 42.3634,12.68360625 12.156,8.4101 18.41,17.5976 18.41,27.5976 V 831.281 c 0,11.578 -6.019,20.895 -17.836,28.274"
         style="fill:#ffffff;fill-opacity:1;fill-rule:evenodd;stroke:none"
         id="path14" /><path
         d="m 201.504,444.465 c -7.164,-6.762 -10.223,-16.985 -8.856,-30.945 1.118,-13.915 7.497,-27.157 18.957,-39.59 11.352,-12.547 24.2,-20.379 38.731,-23.797 14.316,-3.242 25.215,-1.477 32.5,5.273 l 63.594,39.707 V 40.2773 c 0,-10 5.457,-19.082 16.707,-27.5976 10.898,-8.46486 24.98,-12.68360625 41.789,-12.68360625 16.804,0 31.238,4.21874625 43.504,12.68360625 12.148,8.5156 18.293,17.5976 18.293,27.5976 V 517.328 c 0,11.59 -6.028,20.899 -17.715,28.055 -11.828,7.383 -26.465,10.906 -44.082,10.906 -17.61,0 -31.692,-3.523 -42.363,-10.906 L 201.504,444.465"
         style="fill:#ffffff;fill-opacity:1;fill-rule:evenodd;stroke:none"
         id="path16" /></g></g></svg>
