<?xml version="1.0" encoding="utf-8"?>
<!-- Generator: Adobe Illustrator 23.0.1, SVG Export Plug-In . SVG Version: 6.00 Build 0)  -->
<svg version="1.1" id="Layer_1" xmlns="http://www.w3.org/2000/svg" xmlns:xlink="http://www.w3.org/1999/xlink" x="0px" y="0px"
	 viewBox="0 0 566.93 566.93" style="enable-background:new 0 0 566.93 566.93;" xml:space="preserve">
<style type="text/css">
	.Arched_x0020_Green{fill:url(#SVGID_1_);stroke:#FFFFFF;stroke-width:0.25;stroke-miterlimit:1;}
	.st0{fill:#1B62AE;}
	.st1{fill:#FFFFFF;}
	.st2{fill:#29ABE2;}
</style>
<linearGradient id="SVGID_1_" gradientUnits="userSpaceOnUse" x1="0" y1="566.9297" x2="0.7071" y2="566.2226">
	<stop  offset="0" style="stop-color:#20AC4B"/>
	<stop  offset="0.9831" style="stop-color:#19361A"/>
</linearGradient>
<g>
	<path class="st0" d="M294.69,49.5c-129.41,0-234.31,104.9-234.31,234.3c0,129.42,104.9,234.3,234.31,234.3
		c129.41,0,234.31-104.88,234.31-234.3C528.99,154.4,424.09,49.5,294.69,49.5z M294.69,452.86c-93.23,0-169.07-75.84-169.07-169.07
		c0-93.21,75.84-169.06,169.07-169.06c93.21,0,169.06,75.84,169.06,169.06C463.74,377.03,387.89,452.86,294.69,452.86z"/>
	<g>
		<g>
			<path class="st1" d="M294.31,488.59c-112.92,0-204.79-91.86-204.79-204.79C89.52,170.88,181.39,79,294.31,79
				c112.93,0,204.8,91.87,204.8,204.8C499.11,396.73,407.24,488.59,294.31,488.59L294.31,488.59z"/>
		</g>
		<path class="st0" d="M282.33,222.37l-42.14,19.64v-47.63l88.05-42.72h4.62v224.28h-50.52V222.37z"/>
		<path class="st0" d="M418.1,290.21c-40.99,0-65.83-25.41-65.83-66.69c0-43,29.75-71.86,76.21-71.86
			c45.32,0,74.47,29.44,74.47,72.73c0,24.53-9.81,45.03-25.11,68.99l-53.4,82.56h-58.89l58.59-86.03
			C422.13,289.92,420.12,290.21,418.1,290.21z M452.16,223.53c0-16.45-10.39-27.71-24.25-27.71c-13.85,0-24.25,10.68-24.25,27.71
			c0,16.75,9.82,27.43,24.25,27.43C442.04,250.96,452.16,239.98,452.16,223.53z"/>
		<g>
			<path class="st1" d="M230.87,394.65L38.29,315.28v-50.7l192.58-79.71v64.61l-98.52,40.4l98.52,40.16V394.65L230.87,394.65z"/>
			<polyline class="st2" points="217.57,204.78 51.59,273.46 51.59,306.37 217.57,374.79 217.57,338.99 97.2,289.92 217.57,240.56 
				217.57,204.78 			"/>
		</g>
	</g>
</g>
</svg>
